<?xml version="1.0" encoding="utf-8"?>
<!-- Generator: Adobe Illustrator 23.0.4, SVG Export Plug-In . SVG Version: 6.00 Build 0)  -->
<svg version="1.1" id="Layer_1" xmlns="http://www.w3.org/2000/svg" xmlns:xlink="http://www.w3.org/1999/xlink" x="0px" y="0px"
	 viewBox="0 0 595.28 841.89" style="enable-background:new 0 0 595.28 841.89;" xml:space="preserve">
<style type="text/css">
	.st0{fill:#FFFFFF;}
</style>
<g>
	<g>
		<path class="st0" d="M238.58,139.47c-21.82-3.5-44.98-2.82-66.19,3.82c-14.68,4.6-29.67,14.29-31.51,30.9
			c-1.99,17.91,11.22,33.6,26.92,40.2c9.16,3.85,19.08,5.26,28.89,6.21c11.94,1.16,23.93,1.89,35.92,2.39
			c24.7,1.03,49.45,0.86,74.14-0.16c12.19-0.51,24.38-1.22,36.55-2.11c10.98-0.8,22.31-1.11,33.07-3.62
			c16.67-3.89,32.27-16.86,30.16-35.51c-2.28-20.11-21.02-31.69-37.89-39.11c-41.33-18.18-89.79-15.65-129.19,6.27
			c-2.11,1.17-0.22,4.41,1.89,3.24c31.97-17.79,70.19-22.62,105.57-13.19c17.09,4.56,37.61,12.31,48.86,26.69
			c5.94,7.59,9.15,17.91,5.94,27.33c-2.87,8.41-10.02,14.65-18.04,18.02c-9.6,4.04-20.24,4.55-30.5,5.38
			c-10.52,0.84-21.05,1.57-31.59,2.14c-21.07,1.16-42.17,1.74-63.28,1.53c-20.83-0.2-41.72-1.05-62.45-3.13
			c-18.41-1.84-38.22-6.69-47.54-24.38c-4.69-8.91-5.44-19.66-0.04-28.45c4.74-7.72,12.94-12.6,21.24-15.7
			c21.29-7.95,45.82-8.72,68.07-5.15C239.95,143.46,240.96,139.85,238.58,139.47L238.58,139.47z"/>
	</g>
</g>
</svg>
