<svg id="Layer_2" data-name="Layer 2" xmlns="http://www.w3.org/2000/svg" viewBox="0 0 82 73.98"><defs><style>.cls-1{fill:#fff;}</style></defs><title>Burger icon</title><path class="cls-1" d="M143.63,130.78h-72a5,5,0,0,0,0,10h72a5,5,0,0,0,0-10Z" transform="translate(-66.63 -66.8)"/><path class="cls-1" d="M71.63,116.29h33.93l11.07,11.08,11.07-11.08h15.93a5,5,0,0,0,0-10H123.56l-6.93,6.93-6.93-6.93H71.63a5,5,0,0,0,0,10Z" transform="translate(-66.63 -66.8)"/><path class="cls-1" d="M69.05,90.79a3.88,3.88,0,0,0,.14.45,4.42,4.42,0,0,0,.15.48c.06.15.15.28.22.43a4.63,4.63,0,0,0,.24.43,2.85,2.85,0,0,0,.31.38,3.72,3.72,0,0,0,.3.37,5.19,5.19,0,0,0,.76.63h0a.67.67,0,0,0,.12.06,5.4,5.4,0,0,0,.75.4,3.52,3.52,0,0,0,.43.13,4.32,4.32,0,0,0,.51.16,5.85,5.85,0,0,0,.72.07l.25,0h67.36a4.58,4.58,0,0,0,.9-.09l.25,0a5.1,5.1,0,0,0,.63-.2,1.57,1.57,0,0,0,.23-.09,4.75,4.75,0,0,0,.77-.41h0a5.78,5.78,0,0,0,.76-.63,3.72,3.72,0,0,0,.3-.37,2.85,2.85,0,0,0,.31-.38,4.63,4.63,0,0,0,.24-.43c.07-.15.16-.28.22-.43a4.42,4.42,0,0,0,.15-.48,3.88,3.88,0,0,0,.14-.45,5.33,5.33,0,0,0,.09-1h0s0-.09,0-.14a5.69,5.69,0,0,0-.08-.83c0-.17-.1-.32-.14-.48a4.11,4.11,0,0,0-.15-.46,4.73,4.73,0,0,0-.39-.74s0-.09-.07-.13h0v0a45.49,45.49,0,0,0-75.62,0l0,0h0s0,.09-.07.13a4.73,4.73,0,0,0-.39.74,4.11,4.11,0,0,0-.15.46c0,.16-.1.31-.14.48a5.69,5.69,0,0,0-.08.83s0,.09,0,.14h0A6.38,6.38,0,0,0,69.05,90.79Zm61-6H85.19a35.47,35.47,0,0,1,44.88,0Z" transform="translate(-66.63 -66.8)"/></svg>