<svg id="Layer_1" data-name="Layer 1" xmlns="http://www.w3.org/2000/svg" viewBox="0 0 266.04 93.29"><defs><style>.cls-1{fill:#fff;}</style></defs><title>svg round </title><path class="cls-1" d="M97.9,9.07c-21.82-3.5-45-2.82-66.19,3.82C17,17.49,2,27.18.2,43.79c-2,17.91,11.22,33.6,26.92,40.2C36.28,87.84,46.2,89.25,56,90.2,68,91.36,79.94,92.09,91.93,92.59c24.7,1,49.45.86,74.14-.16q18.28-.77,36.55-2.11c11-.8,22.31-1.11,33.07-3.62,16.67-3.89,32.27-16.86,30.16-35.51-2.28-20.11-21-31.69-37.89-39.11C186.63-6.1,138.17-3.57,98.77,18.35c-2.11,1.17-.22,4.41,1.89,3.24A142.68,142.68,0,0,1,206.23,8.4c17.09,4.56,37.61,12.31,48.86,26.69C261,42.68,264.24,53,261,62.42c-2.87,8.41-10,14.65-18,18-9.6,4-20.24,4.55-30.5,5.38Q196.71,87.08,180.9,88c-21.07,1.16-42.17,1.74-63.28,1.53-20.83-.2-41.72-1-62.45-3.13C36.76,84.52,17,79.67,7.63,62c-4.69-8.91-5.44-19.66,0-28.45,4.74-7.72,12.94-12.6,21.24-15.7C50.12,9.88,74.65,9.11,96.9,12.68c2.37.38,3.38-3.23,1-3.61Z"/></svg>